<?xml version="1.0" standalone="no"?>
<!DOCTYPE svg PUBLIC "-//W3C//DTD SVG 20010904//EN"
 "http://www.w3.org/TR/2001/REC-SVG-20010904/DTD/svg10.dtd">
<svg version="1.0" xmlns="http://www.w3.org/2000/svg"
 width="853.000000pt" height="853.000000pt" viewBox="0 0 853.000000 853.000000"
 preserveAspectRatio="xMidYMid meet">
<metadata>
Created by potrace 1.11, written by Peter Selinger 2001-2013
</metadata>
<g transform="translate(0.000000,853.000000) scale(0.100000,-0.100000)"
fill="#000000" stroke="none">
<path d="M604 6070 c-84 -23 -140 -55 -201 -112 -80 -76 -141 -198 -159 -318
-3 -25 -8 -259 -9 -520 -3 -501 -6 -534 -52 -612 -10 -18 -37 -45 -59 -61 -35
-24 -55 -31 -112 -36 -10 -1 -12 -33 -10 -143 3 -132 4 -141 23 -144 104 -15
145 -50 182 -154 l26 -75 3 -485 c1 -267 5 -496 8 -510 3 -14 9 -41 12 -60 3
-19 24 -72 46 -118 49 -101 125 -180 212 -222 82 -39 125 -47 249 -49 l105 -2
0 139 1 139 -90 5 c-119 7 -161 36 -202 136 -24 61 -26 99 -28 587 -1 383 -3
439 -20 507 -33 136 -103 248 -179 286 l-41 20 44 26 c100 58 164 173 187 335
5 36 10 265 10 507 1 459 6 512 45 574 49 77 92 97 201 96 l72 -1 0 143 1 143
-103 -2 c-58 -2 -130 -10 -162 -19z"/>
<path d="M2932 5950 l3 -142 80 -3 c125 -3 179 -43 218 -159 6 -19 11 -213 12
-487 3 -469 8 -547 46 -657 35 -101 94 -178 163 -214 l39 -20 -39 -17 c-81
-37 -151 -143 -183 -278 -22 -94 -22 -108 -26 -628 -1 -225 -5 -420 -8 -432
-12 -48 -46 -109 -73 -134 -39 -36 -84 -49 -165 -49 l-69 0 0 -140 0 -140 98
0 c199 0 335 64 431 203 38 56 76 145 86 202 4 22 8 47 10 55 2 8 4 27 4 43
l1 27 148 0 149 0 1 135 c1 120 -1 135 -16 136 -9 0 -75 2 -147 2 l-130 2 -1
176 -2 176 412 1 c226 0 420 1 432 1 20 1 21 6 20 136 l0 135 -428 0 c-235 0
-428 3 -428 8 0 19 29 111 43 139 24 45 75 81 135 94 l52 11 0 139 c0 125 -2
139 -17 140 -116 5 -187 83 -211 234 -3 22 -6 197 -7 389 l0 348 338 0 338 -1
-3 137 -3 137 -342 0 c-293 0 -343 2 -343 14 0 24 -41 132 -68 181 -53 95
-171 190 -267 215 -16 5 -37 10 -45 12 -8 3 -66 7 -128 10 l-113 5 3 -142z"/>
<path d="M5048 6075 c-184 -40 -316 -177 -367 -380 l-11 -41 -105 1 -105 0 0
-137 0 -138 100 0 100 0 0 -208 0 -207 -396 0 c-218 0 -398 -4 -401 -8 -5 -8
-6 -121 -4 -233 l1 -31 388 0 c214 0 394 -3 399 -6 11 -7 10 -17 -9 -97 -22
-90 -71 -152 -133 -167 -16 -4 -33 -8 -37 -9 -5 -1 -16 -2 -26 -3 -16 -1 -18
-14 -17 -141 0 -77 2 -140 5 -141 3 0 19 -3 35 -5 52 -8 109 -42 134 -79 48
-72 54 -116 58 -466 l5 -326 -326 1 -326 1 0 -137 0 -138 324 0 325 0 6 -47
c33 -246 158 -406 360 -466 28 -8 98 -15 158 -16 l107 -2 0 140 0 141 -57 1
c-113 1 -155 17 -196 71 -57 76 -59 93 -62 598 -3 478 -4 491 -29 591 -31 118
-107 228 -183 264 l-35 17 43 19 c54 25 101 77 139 154 58 116 62 162 65 685
3 420 5 481 20 525 38 109 89 147 204 151 42 1 79 3 84 3 4 1 7 64 7 141 l0
140 -92 -1 c-51 -1 -119 -7 -150 -14z"/>
<path d="M7659 6078 c-2 -49 1 -262 4 -265 2 -2 41 -5 86 -8 89 -4 117 -16
163 -68 58 -66 61 -96 63 -601 1 -318 6 -481 14 -526 30 -157 105 -281 194
-322 34 -16 34 -23 -3 -38 -42 -17 -111 -95 -143 -162 -54 -111 -59 -169 -62
-683 -3 -413 -5 -476 -20 -520 -38 -111 -100 -154 -222 -155 l-73 0 0 -141 0
-141 123 4 c167 6 243 35 337 128 99 97 144 195 165 355 3 17 5 235 6 485 1
469 4 511 44 596 21 45 78 92 122 101 21 4 41 8 46 9 4 1 11 2 15 3 4 0 8 64
8 141 -1 118 -3 140 -16 141 -94 4 -165 63 -194 161 -23 74 -26 144 -26 595
-1 490 -5 526 -66 651 -68 139 -195 236 -339 260 -93 16 -225 16 -226 0z"/>
<path d="M1080 4269 l0 -1250 538 1 c418 1 557 5 627 16 277 45 470 157 590
344 19 30 38 64 41 75 3 11 9 29 15 40 21 47 37 153 37 248 0 307 -123 491
-380 566 -31 9 -57 20 -58 25 -1 6 28 20 63 31 36 12 86 37 111 55 80 58 163
186 181 277 4 21 10 49 13 63 10 46 6 234 -7 290 -47 199 -191 334 -431 403
-83 24 -111 30 -215 42 -27 4 -63 9 -80 12 -16 3 -258 7 -537 9 l-508 3 0
-1250z m1014 797 c76 -18 142 -49 170 -80 74 -83 79 -251 9 -344 -64 -86 -176
-113 -463 -114 -96 0 -181 0 -187 1 -10 1 -13 64 -13 279 l0 279 209 -3 c143
-2 230 -8 275 -18z m39 -980 c89 -25 122 -41 164 -83 53 -53 76 -105 81 -188
10 -162 -72 -289 -211 -329 -83 -23 -116 -26 -340 -27 l-212 -1 -3 325 -2 326
232 -4 c173 -2 248 -7 291 -19z"/>
<path d="M5437 4287 c0 -678 2 -1235 2 -1239 1 -4 118 -7 261 -7 l260 0 1 42
c0 23 0 264 0 535 l1 492 489 0 489 0 1 -42 c0 -24 1 -263 2 -533 l2 -490 255
-2 c140 -1 257 2 260 7 3 5 5 561 5 1237 l0 1228 -262 2 -261 2 -1 -481 c0
-264 -2 -483 -5 -486 -4 -3 -902 -6 -963 -3 -9 1 -12 111 -12 449 0 246 0 464
0 484 l-1 37 -262 0 -263 0 2 -1232z"/>
</g>
</svg>
