<svg xmlns="http://www.w3.org/2000/svg" viewBox="0 0 1436.22 613.57"><defs><style>.cls-1,.cls-2{fill:#fefefe;}.cls-1{fill-rule:evenodd;}</style></defs><g id="Layer_2" data-name="Layer 2"><g id="Layer_1-2" data-name="Layer 1"><path class="cls-1" d="M271.06,169.49V263h51.81q36.25,0,52.52-11.22h0q16.28-11.24,16.27-37.13h0q0-24.18-17.7-34.69h0q-17.71-10.5-56-10.5H271.06Zm-89.23,347.7V96.38h131q89.52,0,130,25.47h0q40.44,25.49,40.44,81h0q0,37.69-17.7,61.88h0q-17.7,24.18-47.06,29.07h0v2.88h0q40,8.93,57.71,33.38h0q17.7,24.46,17.7,65.06h0q0,57.56-41.59,89.8h0q-41.6,32.23-113,32.24H181.83ZM326.32,333.84H271.06V443.5H329.2q36.84,0,54.4-14.11h0q17.55-14.1,17.55-43.17h0q0-52.38-74.83-52.38Z"/><path class="cls-2" d="M1257.57,96.38v417h-88.14v-180H1004.29v180H915.87v-417h88.42V259.81h165.14V96.38Z"/><path class="cls-2" d="M127.48,613.57h0q-40.91,0-64.27-26.59h0q-23.37-26.6-23.37-68.86h0V395.41h0q0-35.45-9.56-50.11h0Q20.71,330.65,0,330.64H0V282.92H0q20.72,0,30.28-14.66h0q9.55-14.65,9.56-50.1h0V95.44h0q0-42.25,23.37-68.85h0Q86.58,0,127.48,0h18.59V47.72H127.48q-15.93,0-25.23,12.61h0Q92.95,72.94,93,95.44h0V218.16h0q0,51.81-21.24,75h0a43.58,43.58,0,0,1-21.25,13.63h0q11.16,2.73,21.25,13.64h0Q93,346.33,93,395.41h0V518.12h0q0,22.5,9.3,35.11h0q9.3,12.62,25.23,12.62h18.59v47.72Z"/><path class="cls-2" d="M872.82,613.57h0q-40.89,0-64.27-26.59h0q-23.37-26.6-23.37-68.86h0V395.41h0q0-35.45-9.56-50.11h0q-9.57-14.66-30.28-14.66h0V282.92h0q20.71,0,30.28-14.66h0q9.55-14.65,9.56-50.1h0V95.44h0q0-42.25,23.37-68.85h0Q831.92,0,872.82,0h18.59V47.72H872.82q-15.93,0-25.23,12.61h0q-9.29,12.61-9.29,35.11h0V218.16h0q0,51.81-21.25,75h0a43.58,43.58,0,0,1-21.25,13.63h0q11.16,2.73,21.25,13.64h0q21.24,25.9,21.25,75h0V518.12h0q0,22.5,9.29,35.11h0q9.3,12.62,25.23,12.62h18.59v47.72Z"/><path class="cls-2" d="M1308.74,0h0q40.9,0,64.27,26.59h0q23.37,26.58,23.37,68.85h0V218.16h0q0,35.44,9.56,50.11h0q9.57,14.66,30.28,14.65h0v47.72h0q-20.71,0-30.28,14.66h0q-9.56,14.65-9.56,50.11h0V518.12h0q0,42.27-23.37,68.86h0q-23.37,26.58-64.27,26.59h-18.59V565.85h18.59q15.93,0,25.23-12.62h0q9.3-12.62,9.3-35.11h0V395.41h0q0-51.81,21.24-75h0a43.72,43.72,0,0,1,21.25-13.64h0q-11.16-2.71-21.25-13.63h0q-21.24-25.9-21.24-75h0V95.44h0q0-22.48-9.3-35.11h0q-9.3-12.6-25.23-12.61h-18.59V0Z"/><path class="cls-2" d="M512.43,0h0q40.91,0,64.27,26.59h0q23.37,26.58,23.37,68.85h0V218.16h0q0,35.44,9.56,50.11h0q9.57,14.66,30.28,14.65h0v47.72h0q-20.71,0-30.28,14.66h0q-9.55,14.65-9.56,50.11h0V518.12h0q0,42.27-23.37,68.86h0q-23.37,26.58-64.27,26.59H493.84V565.85h18.59q15.93,0,25.23-12.62h0q9.3-12.62,9.3-35.11h0V395.41h0q0-51.81,21.24-75h0a43.72,43.72,0,0,1,21.25-13.64h0q-11.16-2.71-21.25-13.63h0q-21.24-25.9-21.24-75h0V95.44h0q0-22.48-9.3-35.11h0q-9.3-12.6-25.23-12.61H493.84V0Z"/><rect class="cls-2" x="585.6" y="73.43" width="128.52" height="45.9"/><rect class="cls-2" x="751.46" y="73.43" width="47.01" height="45.9"/><rect class="cls-2" x="585.6" y="372.2" width="159.99" height="45.9"/><rect class="cls-2" x="675.51" y="478.05" width="142.87" height="45.9"/><rect class="cls-2" x="649.86" y="189.72" width="152.47" height="45.9"/><rect class="cls-2" x="585.6" y="478.05" width="64.26" height="45.9"/></g></g></svg>