<?xml version="1.0" encoding="utf-8"?>
<!-- Generator: Adobe Illustrator 26.2.1, SVG Export Plug-In . SVG Version: 6.00 Build 0)  -->
<svg version="1.1" id="Layer_1" xmlns="http://www.w3.org/2000/svg" xmlns:xlink="http://www.w3.org/1999/xlink" x="0px" y="0px"
	 viewBox="0 0 1436.2 613.6" style="enable-background:new 0 0 1436.2 613.6;" xml:space="preserve">
<style type="text/css">
	.st0{fill-rule:evenodd;clip-rule:evenodd;fill:#405839;}
	.st1{fill:#405839;}
</style>
<g id="Layer_2_00000154395788036174885350000003599779769042673029_">
	<g id="Layer_1-2">
		<path class="st0" d="M271.1,169.5V263h51.8c24.2,0,41.7-3.7,52.5-11.2l0,0c10.9-7.5,16.3-19.9,16.3-37.1l0,0
			c0-16.1-5.9-27.7-17.7-34.7l0,0c-11.8-7-30.5-10.5-56-10.5L271.1,169.5L271.1,169.5z M181.8,517.2V96.4h131
			c59.7,0,103,8.5,130,25.5l0,0c27,17,40.4,44,40.4,81l0,0c0,25.1-5.9,45.8-17.7,61.9l0,0c-11.8,16.1-27.5,25.8-47.1,29.1l0,0v2.9
			l0,0c26.7,6,45.9,17.1,57.7,33.4l0,0c11.8,16.3,17.7,38,17.7,65.1l0,0c0,38.4-13.9,68.3-41.6,89.8l0,0
			c-27.7,21.5-65.4,32.2-113,32.2L181.8,517.2L181.8,517.2z M326.3,333.8h-55.3v109.7h58.1c24.6,0,42.7-4.7,54.4-14.1l0,0
			c11.7-9.4,17.5-23.8,17.5-43.2l0,0C401.1,351.3,376.2,333.8,326.3,333.8L326.3,333.8z"/>
		<path class="st1" d="M1257.6,96.4v417h-88.1v-180h-165.1v180h-88.4v-417h88.4v163.4h165.1V96.4H1257.6z"/>
		<path class="st1" d="M127.5,613.6L127.5,613.6c-27.3,0-48.7-8.9-64.3-26.6l0,0c-15.6-17.7-23.4-40.7-23.4-68.9l0,0V395.4l0,0
			c0-23.6-3.2-40.3-9.6-50.1l0,0c-6.4-9.8-16.5-14.7-30.3-14.7l0,0v-47.7l0,0c13.8,0,23.9-4.9,30.3-14.7l0,0
			c6.4-9.8,9.6-26.5,9.6-50.1l0,0V95.4l0,0c0-28.2,7.8-51.1,23.4-68.8l0,0C78.8,8.9,100.2,0,127.5,0h18.6v47.7h-18.6
			c-10.6,0-19,4.2-25.2,12.6l0,0C96,68.7,93,80.4,93,95.4l0,0v122.7l0,0c0,34.5-7.1,59.5-21.2,75l0,0c-5.6,6.5-13,11.3-21.2,13.6
			l0,0c7.4,1.8,14.5,6.4,21.2,13.6l0,0c14.2,17.3,21.2,42.3,21.2,75l0,0v122.7l0,0c0,15,3.1,26.7,9.3,35.1l0,0
			c6.2,8.4,14.6,12.6,25.2,12.6h18.6v47.7L127.5,613.6z"/>
		<path class="st1" d="M872.8,613.6L872.8,613.6c-27.3,0-48.7-8.9-64.3-26.6l0,0c-15.6-17.7-23.4-40.7-23.4-68.9l0,0V395.4l0,0
			c0-23.6-3.2-40.3-9.6-50.1l0,0c-6.4-9.8-16.5-14.7-30.3-14.7l0,0v-47.7l0,0c13.8,0,23.9-4.9,30.3-14.7l0,0
			c6.4-9.8,9.6-26.5,9.6-50.1l0,0V95.4l0,0c0-28.2,7.8-51.1,23.4-68.8l0,0C824.1,8.9,845.6,0,872.8,0h18.6v47.7h-18.6
			c-10.6,0-19,4.2-25.2,12.6l0,0c-6.2,8.4-9.3,20.1-9.3,35.1l0,0v122.7l0,0c0,34.5-7.1,59.5-21.2,75l0,0c-5.6,6.5-13,11.3-21.2,13.6
			l0,0c7.4,1.8,14.5,6.4,21.2,13.6l0,0c14.2,17.3,21.2,42.3,21.2,75l0,0v122.7l0,0c0,15,3.1,26.7,9.3,35.1l0,0
			c6.2,8.4,14.6,12.6,25.2,12.6h18.6v47.7L872.8,613.6z"/>
		<path class="st1" d="M1308.7,0L1308.7,0c27.3,0,48.7,8.9,64.3,26.6l0,0c15.6,17.7,23.4,40.7,23.4,68.9l0,0v122.7l0,0
			c0,23.6,3.2,40.3,9.6,50.1l0,0c6.4,9.8,16.5,14.7,30.3,14.6l0,0v47.7l0,0c-13.8,0-23.9,4.9-30.3,14.7l0,0
			c-6.4,9.8-9.6,26.5-9.6,50.1l0,0v122.7l0,0c0,28.2-7.8,51.1-23.4,68.9l0,0c-15.6,17.7-37,26.6-64.3,26.6h-18.6v-47.7h18.6
			c10.6,0,19-4.2,25.2-12.6l0,0c6.2-8.4,9.3-20.1,9.3-35.1l0,0V395.4l0,0c0-34.5,7.1-59.5,21.2-75l0,0c5.6-6.5,13-11.3,21.2-13.6
			l0,0c-7.4-1.8-14.5-6.3-21.2-13.6l0,0c-14.2-17.3-21.2-42.3-21.2-75l0,0V95.4l0,0c0-15-3.1-26.7-9.3-35.1l0,0
			c-6.2-8.4-14.6-12.6-25.2-12.6h-18.6V0H1308.7z"/>
		<path class="st1" d="M512.4,0L512.4,0c27.3,0,48.7,8.9,64.3,26.6l0,0c15.6,17.7,23.4,40.7,23.4,68.9l0,0v122.7l0,0
			c0,23.6,3.2,40.3,9.6,50.1l0,0c6.4,9.8,16.5,14.7,30.3,14.6l0,0v47.7l0,0c-13.8,0-23.9,4.9-30.3,14.7l0,0
			c-6.4,9.8-9.6,26.5-9.6,50.1l0,0v122.7l0,0c0,28.2-7.8,51.1-23.4,68.9l0,0c-15.6,17.7-37,26.6-64.3,26.6h-18.6v-47.7h18.6
			c10.6,0,19-4.2,25.2-12.6l0,0c6.2-8.4,9.3-20.1,9.3-35.1l0,0V395.4l0,0c0-34.5,7.1-59.5,21.2-75l0,0c5.6-6.5,13-11.3,21.2-13.6
			l0,0c-7.4-1.8-14.5-6.3-21.2-13.6l0,0c-14.2-17.3-21.2-42.3-21.2-75l0,0V95.4l0,0c0-15-3.1-26.7-9.3-35.1l0,0
			c-6.2-8.4-14.6-12.6-25.2-12.6h-18.6V0H512.4z"/>
		<rect x="585.6" y="73.4" class="st1" width="128.5" height="45.9"/>
		<rect x="751.5" y="73.4" class="st1" width="47" height="45.9"/>
		<rect x="585.6" y="372.2" class="st1" width="160" height="45.9"/>
		<rect x="675.5" y="478" class="st1" width="142.9" height="45.9"/>
		<rect x="649.9" y="189.7" class="st1" width="152.5" height="45.9"/>
		<rect x="585.6" y="478" class="st1" width="64.3" height="45.9"/>
	</g>
</g>
</svg>
