<?xml version="1.0" encoding="utf-8"?>
<!-- Generator: Adobe Illustrator 15.0.2, SVG Export Plug-In . SVG Version: 6.00 Build 0)  -->
<!DOCTYPE svg PUBLIC "-//W3C//DTD SVG 1.1//EN" "http://www.w3.org/Graphics/SVG/1.1/DTD/svg11.dtd">
<svg version="1.1" id="レイヤー_1" xmlns="http://www.w3.org/2000/svg" xmlns:xlink="http://www.w3.org/1999/xlink" x="0px"
	 y="0px" width="1000px" height="1000px" viewBox="0 0 1000 1000" enable-background="new 0 0 1000 1000" xml:space="preserve">
<g>
	<g>
		<path fill="#004098" d="M362.338,386.28h34.05c49.201,0,68.685,28.343,68.685,68.489c0,49.787-33.26,68.88-78.724,68.88h-24.011
			V386.28z M375.919,511.844h11.22c38.967,0,64.353-15.746,64.353-57.864c0-41.913-24.991-55.894-55.693-55.894h-19.879V511.844z"/>
		<path fill="#004098" d="M493.645,386.28h32.669c22.436,0,43.494,7.483,43.494,33.854c0,17.513-8.073,27.942-24.996,31.289v0.391
			c17.318,3.15,29.128,14.565,29.128,32.673c0,29.913-24.405,39.162-52.942,39.162h-27.353V386.28z M507.222,511.844h14.17
			c18.303,0,38.967-4.926,38.967-26.771c0-24.401-21.059-26.957-41.132-26.957h-12.005V511.844z M507.616,446.302h15.151
			c14.366,0,33.46-3.737,33.46-25.581c0-19.875-18.304-22.635-29.914-22.635h-18.697V446.302z"/>
		<path fill="#004098" d="M698.544,401.627c-8.658-4.526-21.059-5.902-30.698-5.902c-35.624,0-55.698,25.191-55.698,59.24
			c0,34.635,19.483,59.24,55.698,59.24c9.05,0,22.825-1.181,30.698-5.902l0.791,11.805c-7.479,4.527-22.83,5.903-31.489,5.903
			c-43.298,0-69.274-28.537-69.274-71.046c0-41.719,26.762-71.045,69.274-71.045c8.069,0,24.401,1.375,31.489,5.112L698.544,401.627
			z"/>
		<path fill="#004098" d="M734.396,386.28h13.581v125.563h55.104v11.806h-68.685V386.28z"/>
		<path fill="#004098" d="M819.239,506.137c8.068,5.113,17.518,8.068,30.309,8.068c16.927,0,30.898-8.663,30.898-28.146
			c0-26.957-62.978-30.304-62.978-66.324c0-22.039,19.288-35.814,43.493-35.814c6.693,0,17.514,0.984,26.962,4.526l-2.165,12.399
			c-6.099-3.346-15.742-5.121-24.992-5.121c-14.17,0-29.717,5.902-29.717,23.62c0,27.552,62.977,27.747,62.977,67.895
			c0,27.747-23.814,38.771-45.069,38.771c-13.381,0-23.814-2.752-31.093-5.903L819.239,506.137z"/>
	</g>
	<g>
		<path fill="#004098" d="M367.021,545.68h10.248c11.49,0,21.631,3.871,21.631,18.738c0,14.868-10.141,18.729-21.631,18.729h-10.248
			V545.68z M374.534,577.244h4.186c6.279,0,12.347-4.668,12.347-12.826c0-8.157-6.067-12.835-12.347-12.835h-4.186V577.244z"/>
		<path fill="#004098" d="M406.392,556.953c2.787-1.287,6.546-2.095,9.604-2.095c8.428,0,11.916,3.488,11.916,11.646v3.551
			c0,2.787,0.054,4.882,0.107,6.924c0.058,2.086,0.164,4.021,0.323,6.168h-6.333c-0.271-1.446-0.271-3.275-0.324-4.136h-0.106
			c-1.664,3.062-5.259,4.784-8.534,4.784c-4.882,0-9.662-2.955-9.662-8.219c0-4.128,1.988-6.543,4.727-7.892
			c2.734-1.341,6.28-1.606,9.285-1.606h3.972c0-4.456-1.988-5.956-6.227-5.956c-3.058,0-6.12,1.181-8.534,3.009L406.392,556.953z
			 M414.814,578.531c2.202,0,3.919-0.967,5.046-2.467c1.182-1.562,1.505-3.543,1.505-5.69h-3.115c-3.218,0-7.997,0.532-7.997,4.775
			C410.253,577.511,412.241,578.531,414.814,578.531z"/>
		<path fill="#004098" d="M437.383,560.762h-5.317v-5.256h5.317v-5.529l7.189-2.309v7.838h6.387v5.256h-6.387v12.888
			c0,2.361,0.644,4.562,3.382,4.562c1.287,0,2.521-0.275,3.275-0.755l0.213,5.689c-1.5,0.427-3.164,0.648-5.312,0.648
			c-5.637,0-8.747-3.488-8.747-8.965V560.762z"/>
		<path fill="#004098" d="M457.15,556.953c2.791-1.287,6.546-2.095,9.604-2.095c8.429,0,11.917,3.488,11.917,11.646v3.551
			c0,2.787,0.053,4.882,0.106,6.924c0.053,2.086,0.164,4.021,0.323,6.168h-6.333c-0.271-1.446-0.271-3.275-0.323-4.136h-0.107
			c-1.664,3.062-5.259,4.784-8.534,4.784c-4.882,0-9.661-2.955-9.661-8.219c0-4.128,1.988-6.543,4.727-7.892
			c2.733-1.341,6.279-1.606,9.284-1.606h3.972c0-4.456-1.988-5.956-6.227-5.956c-3.058,0-6.12,1.181-8.534,3.009L457.15,556.953z
			 M465.573,578.531c2.201,0,3.919-0.967,5.047-2.467c1.18-1.562,1.504-3.543,1.504-5.69h-3.115c-3.218,0-7.998,0.532-7.998,4.775
			C461.011,577.511,462.999,578.531,465.573,578.531z"/>
		<path fill="#004098" d="M485.776,542.893h7.193v16.155h0.107c1.988-2.627,4.509-4.189,8.268-4.189
			c8.477,0,11.593,6.764,11.593,14.389c0,7.562-3.116,14.548-11.593,14.548c-3.062,0-6.387-1.074-8.48-4.029h-0.107v3.381h-6.98
			V542.893z M499.356,578.212c4.723,0,6.067-5.157,6.067-8.965c0-3.702-1.287-8.806-5.961-8.806c-4.615,0-6.439,4.936-6.439,8.806
			C493.023,573.161,494.581,578.212,499.356,578.212z"/>
		<path fill="#004098" d="M519.834,556.953c2.792-1.287,6.547-2.095,9.604-2.095c8.428,0,11.916,3.488,11.916,11.646v3.551
			c0,2.787,0.054,4.882,0.106,6.924c0.054,2.086,0.165,4.021,0.324,6.168h-6.333c-0.271-1.446-0.271-3.275-0.324-4.136h-0.106
			c-1.664,3.062-5.259,4.784-8.534,4.784c-4.883,0-9.662-2.955-9.662-8.219c0-4.128,1.988-6.543,4.727-7.892
			c2.734-1.341,6.28-1.606,9.285-1.606h3.972c0-4.456-1.988-5.956-6.227-5.956c-3.058,0-6.12,1.181-8.534,3.009L519.834,556.953z
			 M528.258,578.531c2.201,0,3.919-0.967,5.046-2.467c1.181-1.562,1.505-3.543,1.505-5.69h-3.116c-3.217,0-7.997,0.532-7.997,4.775
			C523.695,577.511,525.684,578.531,528.258,578.531z"/>
		<path fill="#004098" d="M564.886,561.303c-2.201-0.754-3.808-1.181-6.439-1.181c-1.931,0-4.238,0.692-4.238,3.062
			c0,4.394,12.502,1.606,12.502,11.593c0,6.435-5.743,9.018-11.593,9.018c-2.738,0-5.53-0.488-8.157-1.18l0.431-5.912
			c2.255,1.127,4.616,1.828,7.083,1.828c1.824,0,4.723-0.701,4.723-3.382c0-5.423-12.507-1.713-12.507-11.698
			c0-5.957,5.206-8.593,10.843-8.593c3.381,0,5.583,0.542,7.837,1.021L564.886,561.303z"/>
		<path fill="#004098" d="M594.475,581.594c-2.627,1.447-5.636,2.201-9.497,2.201c-9.125,0-14.442-5.264-14.442-14.335
			c0-7.997,4.243-14.602,12.831-14.602c10.252,0,13.15,7.03,13.15,16.696h-19.111c0.324,4.456,3.436,6.977,7.892,6.977
			c3.488,0,6.493-1.287,9.178-2.787V581.594z M589.646,566.619c-0.217-3.488-1.823-6.497-5.849-6.497s-6.067,2.787-6.392,6.497
			H589.646z"/>
		<path fill="#004098" d="M645.017,582.615c-2.738,0.639-5.69,1.18-8.535,1.18c-12.129,0-20.557-6.071-20.557-18.738
			c0-12.826,7.837-20.016,20.557-20.016c2.473,0,5.743,0.479,8.481,1.554l-0.537,6.337c-2.845-1.615-5.419-1.988-8.104-1.988
			c-7.728,0-12.561,5.903-12.561,13.582c0,7.615,4.723,13.357,12.72,13.357c2.951,0,6.444-0.639,8.215-1.553L645.017,582.615z"/>
		<path fill="#004098" d="M672.093,581.594c-2.627,1.447-5.636,2.201-9.497,2.201c-9.125,0-14.441-5.264-14.441-14.335
			c0-7.997,4.242-14.602,12.83-14.602c10.253,0,13.15,7.03,13.15,16.696h-19.11c0.324,4.456,3.435,6.977,7.891,6.977
			c3.488,0,6.498-1.287,9.178-2.787V581.594z M667.265,566.619c-0.218-3.488-1.824-6.497-5.85-6.497
			c-4.029,0-6.066,2.787-6.391,6.497H667.265z"/>
		<path fill="#004098" d="M679.789,555.506h6.817v3.756h0.11c2.25-3.17,5.312-4.403,9.067-4.403c6.551,0,9.396,4.616,9.396,10.847
			v17.441h-7.194v-14.761c0-3.382-0.053-7.944-4.669-7.944c-5.206,0-6.333,5.637-6.333,9.178v13.527h-7.194V555.506z"/>
		<path fill="#004098" d="M714.975,560.762h-5.317v-5.256h5.317v-5.529l7.189-2.309v7.838h6.387v5.256h-6.387v12.888
			c0,2.361,0.644,4.562,3.382,4.562c1.287,0,2.521-0.275,3.275-0.755l0.213,5.689c-1.5,0.427-3.164,0.648-5.312,0.648
			c-5.636,0-8.747-3.488-8.747-8.965V560.762z"/>
		<path fill="#004098" d="M755.672,581.594c-2.627,1.447-5.636,2.201-9.497,2.201c-9.125,0-14.441-5.264-14.441-14.335
			c0-7.997,4.242-14.602,12.83-14.602c10.252,0,13.15,7.03,13.15,16.696h-19.111c0.324,4.456,3.436,6.977,7.892,6.977
			c3.488,0,6.497-1.287,9.178-2.787V581.594z M750.844,566.619c-0.218-3.488-1.824-6.497-5.85-6.497
			c-4.03,0-6.067,2.787-6.392,6.497H750.844z"/>
		<path fill="#004098" d="M763.532,555.506h6.387v6.275h0.106c0.323-2.573,3.275-6.923,7.566-6.923c0.702,0,1.452,0,2.202,0.213
			v7.252c-0.645-0.382-1.932-0.595-3.219-0.595c-5.854,0-5.854,7.305-5.854,11.273v10.145h-7.189V555.506z"/>
		<path fill="#004098" d="M369.005,616.539h-5.312v-5.254h5.312v-3.87c0-5.521,3.115-9.392,8.801-9.392
			c1.828,0,3.865,0.275,5.264,0.596l-0.591,5.955c-0.647-0.373-1.558-0.967-3.115-0.967c-2.415,0-3.165,2.094-3.165,4.242v3.436
			h6.28v5.254h-6.28v22.387h-7.193V616.539z"/>
		<path fill="#004098" d="M399.938,610.637c8.21,0,14.49,5.53,14.49,14.654c0,7.945-5.312,14.283-14.49,14.283
			c-9.125,0-14.442-6.338-14.442-14.283C385.496,616.167,391.776,610.637,399.938,610.637z M399.938,633.99
			c5.525,0,6.977-4.943,6.977-9.56c0-4.233-2.255-8.21-6.977-8.21c-4.674,0-6.924,4.082-6.924,8.21
			C393.015,628.993,394.462,633.99,399.938,633.99z"/>
		<path fill="#004098" d="M420.251,611.285h6.387v6.275h0.106c0.324-2.574,3.275-6.924,7.567-6.924c0.701,0,1.451,0,2.201,0.213
			v7.252c-0.644-0.381-1.931-0.594-3.218-0.594c-5.854,0-5.854,7.305-5.854,11.271v10.146h-7.19V611.285z"/>
		<path fill="#004098" d="M456.564,601.459h7.514v31.564h14.544v5.902h-22.058V601.459z"/>
		<path fill="#004098" d="M482.936,599.364h7.19v6.87h-7.19V599.364z M482.936,611.285h7.19v27.641h-7.19V611.285z"/>
		<path fill="#004098" d="M500.338,616.539h-5.312v-5.254h5.312v-3.87c0-5.521,3.115-9.392,8.801-9.392
			c1.828,0,3.865,0.275,5.264,0.596l-0.591,5.955c-0.647-0.373-1.558-0.967-3.115-0.967c-2.414,0-3.164,2.094-3.164,4.242v3.436
			h6.279v5.254h-6.279v22.387h-7.194V616.539z"/>
		<path fill="#004098" d="M540.769,637.372c-2.627,1.446-5.636,2.202-9.497,2.202c-9.125,0-14.442-5.264-14.442-14.336
			c0-7.998,4.243-14.602,12.831-14.602c10.252,0,13.15,7.03,13.15,16.696H523.7c0.324,4.456,3.435,6.978,7.891,6.978
			c3.488,0,6.498-1.287,9.178-2.787V637.372z M535.94,622.398c-0.218-3.488-1.824-6.498-5.85-6.498
			c-4.029,0-6.066,2.787-6.391,6.498H535.94z"/>
		<path fill="#004098" d="M584.174,608.329c-2.361-1.021-4.993-1.606-7.625-1.606c-2.573,0-5.902,1.127-5.902,5.201
			c0,6.498,16.426,3.764,16.426,16.324c0,8.21-6.498,11.326-14.064,11.326c-4.079,0-5.903-0.542-9.608-1.457l0.701-6.764
			c2.574,1.402,5.525,2.309,8.48,2.309c2.841,0,6.653-1.447,6.653-4.829c0-7.136-16.426-4.181-16.426-16.581
			c0-8.379,6.497-11.432,13.097-11.432c3.223,0,6.227,0.426,8.965,1.34L584.174,608.329z"/>
		<path fill="#004098" d="M611.193,617.24c-1.287-0.586-2.686-1.02-4.887-1.02c-4.456,0-7.301,3.541-7.301,8.752
			c0,5.094,2.419,9.018,7.465,9.018c2.037,0,4.292-0.754,5.526-1.287l0.323,5.956c-2.095,0.64-4.243,0.915-7.194,0.915
			c-9.071,0-13.634-6.179-13.634-14.602c0-7.998,4.727-14.336,13.368-14.336c2.897,0,4.988,0.328,6.977,0.914L611.193,617.24z"/>
		<path fill="#004098" d="M617.273,599.364h7.189v6.87h-7.189V599.364z M617.273,611.285h7.189v27.641h-7.189V611.285z"/>
		<path fill="#004098" d="M654.212,637.372c-2.627,1.446-5.637,2.202-9.498,2.202c-9.124,0-14.441-5.264-14.441-14.336
			c0-7.998,4.243-14.602,12.831-14.602c10.252,0,13.15,7.03,13.15,16.696h-19.11c0.323,4.456,3.435,6.978,7.891,6.978
			c3.488,0,6.492-1.287,9.178-2.787V637.372z M649.384,622.398c-0.218-3.488-1.824-6.498-5.85-6.498s-6.067,2.787-6.391,6.498
			H649.384z"/>
		<path fill="#004098" d="M661.907,611.285h6.817v3.754h0.111c2.255-3.168,5.312-4.402,9.067-4.402c6.55,0,9.395,4.615,9.395,10.848
			v17.441h-7.193v-14.762c0-3.382-0.054-7.943-4.669-7.943c-5.206,0-6.333,5.636-6.333,9.178v13.527h-7.195V611.285z"/>
		<path fill="#004098" d="M712.657,617.24c-1.286-0.586-2.685-1.02-4.886-1.02c-4.456,0-7.301,3.541-7.301,8.752
			c0,5.094,2.419,9.018,7.465,9.018c2.037,0,4.292-0.754,5.525-1.287l0.324,5.956c-2.095,0.64-4.243,0.915-7.194,0.915
			c-9.071,0-13.634-6.179-13.634-14.602c0-7.998,4.727-14.336,13.367-14.336c2.898,0,4.989,0.328,6.978,0.914L712.657,617.24z"/>
		<path fill="#004098" d="M740.742,637.372c-2.627,1.446-5.636,2.202-9.497,2.202c-9.125,0-14.442-5.264-14.442-14.336
			c0-7.998,4.243-14.602,12.831-14.602c10.252,0,13.15,7.03,13.15,16.696h-19.111c0.324,4.456,3.436,6.978,7.892,6.978
			c3.488,0,6.497-1.287,9.178-2.787V637.372z M735.913,622.398c-0.217-3.488-1.823-6.498-5.849-6.498
			c-4.03,0-6.067,2.787-6.392,6.498H735.913z"/>
	</g>
	<g>
		<g>
			<rect x="219.244" y="387.248" fill="#97BDC0" width="13.358" height="52.93"/>
			<rect x="251.624" y="399.844" fill="#97BDC0" width="10.714" height="52.938"/>
			<rect x="236.349" y="393.551" fill="#97BDC0" width="12.146" height="52.938"/>
			<rect x="200.573" y="380.955" fill="#97BDC0" width="14.29" height="52.929"/>
			<rect x="135.053" y="354.06" fill="#97BDC0" width="6.333" height="52.946"/>
			<rect x="264.841" y="406.146" fill="#97BDC0" width="9.023" height="52.929"/>
			<rect x="121.396" y="342.99" fill="#97BDC0" width="3.391" height="52.93"/>
			<rect x="105.185" y="322.105" fill="#97BDC0" width="1.877" height="52.938"/>
			<rect x="181.91" y="374.644" fill="#97BDC0" width="13.661" height="52.921"/>
			<rect x="149.517" y="361.729" fill="#97BDC0" width="9.018" height="52.93"/>
			<rect x="164.797" y="368.209" fill="#97BDC0" width="11.481" height="52.938"/>
			<rect x="284.01" y="418.759" fill="#97BDC0" width="4.634" height="52.929"/>
			<path fill="#97BDC0" d="M289.265,425.486c0,0,0,53.737,0,52.93c0-0.79,1.69,0,1.69,0v-52.93H289.265z"/>
			<rect x="275.741" y="412.447" fill="#97BDC0" width="7.025" height="52.93"/>
		</g>
		<g>
			<g>
				<g>
					<path fill="#97BDC0" d="M105.185,478.416c0,2.086,0.705,4.172,2.006,6.267c1.344,2.157,3.332,4.331,5.822,6.471
						c2.361,2.051,5.166,4.065,8.335,6.045c3.373,2.112,7.154,4.216,11.202,6.249c4.256,2.148,8.818,4.234,13.527,6.258
						c5.082,2.174,10.336,4.278,15.582,6.258c5.907,2.228,11.801,4.332,17.429,6.258c6.893,2.352,13.381,4.473,18.981,6.248
						c5.602,1.803,12.094,3.897,18.982,6.275c5.632,1.909,11.517,4.013,17.424,6.24c5.25,1.998,10.505,4.084,15.582,6.268
						c4.718,2.015,9.276,4.118,13.537,6.258c4.052,2.032,7.828,4.127,11.206,6.258c3.279,2.05,6.173,4.153,8.583,6.248
						c2.383,2.068,4.27,4.172,5.565,6.258c1.301,2.104,2.006,4.189,2.006,6.258v-52.938c0-2.068-0.705-4.163-2.006-6.249
						c-1.296-2.086-3.183-4.19-5.565-6.258c-2.41-2.122-5.304-4.198-8.583-6.258c-3.378-2.122-7.154-4.208-11.206-6.258
						c-4.261-2.147-8.819-4.233-13.537-6.249c-5.077-2.192-10.332-4.287-15.582-6.275c-5.907-2.229-11.792-4.322-17.424-6.249
						c-6.889-2.36-13.381-4.465-18.982-6.258c-5.601-1.784-12.089-3.888-18.981-6.258c-5.628-1.926-11.521-4.021-17.429-6.258
						c-5.246-1.979-10.5-4.074-15.582-6.249c-4.709-2.032-9.271-4.109-13.527-6.258c-4.048-2.032-7.829-4.136-11.202-6.258
						c-3.169-1.979-5.974-3.994-8.335-6.035c-2.49-2.14-4.479-4.314-5.822-6.488c-1.301-2.078-2.006-4.172-2.006-6.25V478.416z"/>
					<path fill="#004098" d="M290.955,578.531c0,2.086-0.705,4.163-2.006,6.249c-1.345,2.175-3.329,4.35-5.831,6.489
						c-2.349,2.032-5.162,4.047-8.326,6.044c-3.378,2.104-7.154,4.208-11.207,6.249c-4.251,2.139-8.81,4.225-13.527,6.258
						c-5.077,2.175-10.332,4.27-15.578,6.258c-5.911,2.229-11.805,4.322-17.428,6.249c-6.896,2.36-13.381,4.474-18.982,6.257
						c-5.601,1.803-12.089,3.889-18.99,6.258c-5.619,1.927-11.508,4.021-17.42,6.258c-5.246,1.98-10.5,4.074-15.582,6.25
						c-4.709,2.032-9.271,4.109-13.527,6.258c-4.053,2.032-7.829,4.136-11.207,6.266c-3.279,2.06-6.182,4.146-8.592,6.25
						c-2.374,2.076-4.266,4.172-5.57,6.266c-1.291,2.078-1.996,4.182-1.996,6.25v-52.93c0-2.068,0.705-4.172,1.996-6.258
						c1.305-2.095,3.196-4.181,5.57-6.249c2.41-2.122,5.312-4.208,8.592-6.275c3.378-2.112,7.154-4.216,11.207-6.249
						c4.256-2.148,8.818-4.234,13.527-6.258c5.082-2.175,10.336-4.278,15.582-6.258c5.912-2.229,11.801-4.332,17.42-6.258
						c6.901-2.352,13.39-4.474,18.99-6.248c5.602-1.785,12.086-3.897,18.982-6.258c5.623-1.927,11.517-4.03,17.428-6.258
						c5.246-1.988,10.501-4.084,15.578-6.25c4.718-2.032,9.276-4.118,13.527-6.258c4.053-2.041,7.829-4.145,11.207-6.258
						c3.164-1.996,5.978-4.012,8.326-6.035c2.502-2.139,4.486-4.314,5.831-6.488c1.301-2.086,2.006-4.189,2.006-6.258V578.531z"/>
				</g>
			</g>
			<g>
				<g>
					<g>
						<path fill="#004098" d="M290.955,478.416c0,2.086-0.705,4.172-2.006,6.267c-1.345,2.157-3.329,4.331-5.831,6.471
							c-2.349,2.032-5.162,4.065-8.326,6.045c-3.378,2.112-7.154,4.216-11.207,6.249c-4.251,2.148-8.81,4.234-13.527,6.258
							c-5.077,2.174-10.332,4.278-15.578,6.258c-5.911,2.228-11.805,4.332-17.428,6.258c-6.896,2.352-13.381,4.473-18.982,6.248
							c-5.601,1.803-12.089,3.897-18.99,6.275c-5.619,1.909-11.508,4.013-17.42,6.24c-5.246,1.998-10.5,4.084-15.582,6.268
							c-4.709,2.015-9.271,4.118-13.527,6.258c-4.053,2.032-7.829,4.127-11.207,6.258c-3.279,2.05-6.182,4.153-8.592,6.248
							c-2.374,2.068-4.266,4.172-5.57,6.258c-1.291,2.086-1.996,4.189-1.996,6.258v-52.938c0-2.068,0.705-4.163,1.996-6.249
							c1.305-2.086,3.196-4.19,5.57-6.258c2.41-2.122,5.312-4.198,8.592-6.258c3.378-2.122,7.154-4.208,11.207-6.258
							c4.256-2.147,8.818-4.233,13.527-6.267c5.082-2.175,10.336-4.27,15.582-6.258c5.912-2.229,11.801-4.322,17.42-6.249
							c6.901-2.36,13.39-4.465,18.99-6.258c5.602-1.784,12.086-3.888,18.982-6.258c5.623-1.926,11.517-4.021,17.428-6.258
							c5.246-1.979,10.501-4.074,15.578-6.249c4.718-2.032,9.276-4.109,13.527-6.258c4.053-2.032,7.829-4.136,11.207-6.258
							c3.164-1.996,5.978-3.994,8.326-6.035c2.502-2.14,4.486-4.314,5.831-6.488c1.301-2.078,2.006-4.172,2.006-6.25V478.416z"/>
					</g>
				</g>
			</g>
			<g>
				<rect x="163.541" y="387.248" fill="#004098" width="13.354" height="52.93"/>
				<rect x="133.801" y="399.844" fill="#004098" width="10.714" height="52.938"/>
				<rect x="147.644" y="393.551" fill="#004098" width="12.147" height="52.938"/>
				<rect x="181.275" y="380.955" fill="#004098" width="14.296" height="52.929"/>
				<rect x="254.753" y="354.06" fill="#004098" width="6.334" height="52.946"/>
				<rect x="122.275" y="406.146" fill="#004098" width="9.027" height="52.929"/>
				<rect x="271.356" y="342.99" fill="#004098" width="3.387" height="52.93"/>
				<rect x="289.078" y="322.105" fill="#004098" width="1.877" height="52.938"/>
				<rect x="200.573" y="374.644" fill="#004098" width="13.66" height="52.921"/>
				<rect x="237.604" y="361.729" fill="#004098" width="9.019" height="52.93"/>
				<rect x="219.86" y="368.209" fill="#004098" width="11.486" height="52.938"/>
				<rect x="107.501" y="418.759" fill="#004098" width="4.629" height="52.929"/>
				<path fill="#004098" d="M106.875,425.486c0,0,0,53.737,0,52.93c0-0.79-1.69,0-1.69,0v-52.93H106.875z"/>
				<rect x="113.372" y="412.447" fill="#004098" width="7.03" height="52.93"/>
			</g>
		</g>
	</g>
</g>
</svg>
