<svg xmlns="http://www.w3.org/2000/svg" viewBox="0 0 205.58 154.87"><defs><style>.cls-1{fill:#f07d25;}.cls-2{fill:#54514e;}</style></defs><g id="Layer_2" data-name="Layer 2"><g id="Layer_1-2" data-name="Layer 1"><path class="cls-1" d="M194,0a11.67,11.67,0,0,0-10.23,17.21c-1.16.57-3.84,1.92-7.63,3.9a8.66,8.66,0,1,0-15.67,7.39c.14.27.27.51.41.76l-6,3.35a6.8,6.8,0,0,0-11.74,6.82c-2.14,1.27-4.31,2.6-6.47,3.93a5,5,0,0,0-8,5.09,229.67,229.67,0,0,0-23.77,17.34C97,48.2,85.42,28.9,69.26,13.18l-.06,0c-1.89-1.87-3.46-1-1.27,1.27l.08.08C81.71,29.23,92.48,50.56,99.81,70,72,93.78,41.33,139.81,74.94,154.27c4.9,2.11,7.12-1.92,5-3.17-.38-.22-15.35-8.31-5.82-33.18h24a2.33,2.33,0,1,0,.16-4.66H76.11a97.75,97.75,0,0,1,4.73-8.79H98.08a2.34,2.34,0,0,0,2.25-2.41,2.36,2.36,0,0,0-2.25-2.25H83.82c1.78-2.65,3.76-5.44,6-8.36h8.25a2.33,2.33,0,0,0,0-4.65H93.51q3.9-4.76,8.66-10l.08-.08c6.31,18.29,9.36,33.88,8.69,39.11a5.42,5.42,0,0,1-2.93,4.35c-1.16.57-1.65,2.2.19,2.74,5.88,1.73,9.5-4.12,10.15-8.8s-2.57-22.06-11.07-42.68a216,216,0,0,1,23.66-20,5,5,0,0,0,6.79-1.81,5.12,5.12,0,0,0,.68-2.49,4.09,4.09,0,0,0-.11-1c2.22-1.54,4.41-3.06,6.6-4.49a6.79,6.79,0,0,0,10.83-7c2.19-1.35,4.3-2.65,6.33-3.87a8.66,8.66,0,0,0,14.56-8.41c3.71-2.06,6.39-3.52,7.72-4.28A11.63,11.63,0,1,0,194,0Z"/><path class="cls-2" d="M61.57,93.18c.43-.94.79-2,1.22-3.19A30.65,30.65,0,0,0,64,85.71l4.41-19.13c.35-2,.65-3.41.73-4.28A9.52,9.52,0,0,0,69.28,60v-.86h10l-6,26.6c-.43,1.9-.73,3.33-.87,4.36a14.8,14.8,0,0,0-.21,3.11Z"/><path class="cls-2" d="M36.62,93.18H7c-3,0-5-.65-6.09-2A5.4,5.4,0,0,1,0,87.91,16.1,16.1,0,0,1,.51,84.2L4.19,68.09c.79-3.24,1.95-5.57,3.55-7s3.92-2,7-2H36.59c3.11,0,5.14.65,6.17,2a5.12,5.12,0,0,1,1,3.33,13.53,13.53,0,0,1-.52,3.62L40.81,78.76H11l-1.6,6.95a11.51,11.51,0,0,0-.22,1.68c0,.35,0,.65.14.79.21.43.86.65,1.89.65H33a28.38,28.38,0,0,0,5.66-.57Zm-2.33-26.6a5.43,5.43,0,0,0,.3-1.73,2.3,2.3,0,0,0-.14-.73c-.29-.44-1-.65-2-.65H17.05a3,3,0,0,0-2.16.65,3.65,3.65,0,0,0-1,2.46L12,74.4H32.45Z"/><path class="cls-2" d="M44,93.18c.46-1.05.84-2.19,1.3-3.57a36.43,36.43,0,0,0,1.29-4.79l7.61-35.27c.46-2.19.76-3.81.92-4.79s.16-2.11.16-3.57H65.9L56.43,84.85c-.46,2.11-.76,3.73-.92,4.87a17.06,17.06,0,0,0-.22,3.49Z"/><path class="cls-2" d="M119.41,93.18c.43-.94.78-2,1.22-3.19a32.36,32.36,0,0,0,1.24-4.28l4.41-19.13c.35-2,.65-3.41.73-4.28a9.52,9.52,0,0,0,.14-2.33v-.86h10l-6,26.6c-.44,1.9-.73,3.33-.87,4.36a15.51,15.51,0,0,0-.22,3.11Z"/><path class="cls-2" d="M166.34,64.85c-1.08-.08-2.17-.14-3.41-.14h-4.87a3.59,3.59,0,0,0-2.17.57,4,4,0,0,0-1.24,2.25l-4.06,18.18a27.45,27.45,0,0,0-1,6.66v.79H139c.43-1.09.86-2.12,1.16-3.12s.65-2.38,1.16-4.35l4.36-19.14c.51-1.89.73-3.33,1-4.41a22,22,0,0,0,.13-3h8.91l-.35,3.46a6.2,6.2,0,0,1,2.24-2.6,7.38,7.38,0,0,1,3.84-.86h8.72l2.11,3.76A7.64,7.64,0,0,0,171,64.25c-.51.65-.86,1-1.08,1C168.58,65.06,167.42,64.93,166.34,64.85Z"/><path class="cls-2" d="M81,47.2a4.9,4.9,0,1,1-4.89-4.9h0A4.87,4.87,0,0,1,81,47.2Z"/></g></g></svg>